<?xml version="1.0" standalone="no"?>
<!DOCTYPE svg PUBLIC "-//W3C//DTD SVG 20010904//EN"
 "http://www.w3.org/TR/2001/REC-SVG-20010904/DTD/svg10.dtd">
<svg version="1.0" xmlns="http://www.w3.org/2000/svg"
 width="391.000000pt" height="391.000000pt" viewBox="0 0 391.000000 391.000000"
 preserveAspectRatio="xMidYMid meet">
<metadata>
Created by potrace 1.14, written by Peter Selinger 2001-2017
</metadata>
<g transform="translate(0.000000,391.000000) scale(0.100000,-0.100000)"
fill="#000000" stroke="none">
<path d="M3232 3494 c-78 -54 -14 -175 72 -140 60 24 72 91 24 136 -26 24 -65
26 -96 4z m90 -21 c18 -16 24 -59 10 -79 -15 -23 -50 -34 -75 -25 -29 11 -34
18 -41 55 -10 54 63 88 106 49z"/>
<path d="M2692 3302 c-50 -53 -143 -151 -206 -217 -111 -115 -127 -137 -107
-149 6 -4 349 331 439 428 1 2 -6 10 -16 19 -17 16 -23 11 -110 -81z"/>
<path d="M2941 2961 c-20 -16 -31 -33 -27 -39 5 -8 16 -4 34 13 15 14 30 25
34 25 5 0 8 7 8 15 0 21 -10 18 -49 -14z"/>
<path d="M1671 2964 c-35 -15 -68 -63 -77 -114 -5 -28 -66 -141 -123 -229 -8
-12 -16 -10 -50 12 -22 15 -45 27 -50 27 -5 0 -11 3 -13 8 -1 4 -19 15 -38 26
-19 10 -60 32 -90 49 -46 26 -66 31 -117 30 -70 0 -77 -4 -448 -220 -66 -38
-140 -81 -165 -95 -25 -14 -61 -35 -80 -47 -19 -12 -47 -27 -62 -33 -16 -7
-28 -16 -28 -20 0 -4 -4 -8 -10 -8 -15 0 -143 -80 -158 -99 -7 -9 -22 -34 -34
-56 -22 -40 -23 -44 -24 -545 -1 -555 -2 -539 61 -609 16 -18 53 -46 80 -62
28 -17 57 -34 65 -39 8 -5 60 -35 115 -66 55 -31 138 -80 185 -107 47 -28 99
-58 115 -67 17 -9 86 -49 153 -89 68 -39 127 -71 132 -71 6 0 10 -4 10 -8 0
-9 37 -15 95 -15 57 0 73 5 135 40 30 17 71 40 90 51 19 10 70 40 113 66 43
25 80 46 82 46 2 0 40 23 85 50 45 28 83 50 85 50 3 0 38 20 78 45 41 25 80
45 86 45 6 0 11 4 11 8 0 4 12 13 28 19 99 43 201 137 202 187 0 16 5 17 33
12 17 -3 37 -13 44 -22 15 -20 101 -51 136 -49 74 5 110 60 109 167 -1 122
-33 289 -93 497 -26 90 -30 113 -23 165 22 172 -21 306 -126 391 -35 28 -66
82 -106 185 -59 149 -197 392 -259 454 -46 46 -103 61 -154 40z"/>
<path d="M3550 2920 c-8 -5 -38 -7 -66 -4 -75 9 -113 -15 -148 -94 -23 -50
-45 -62 -128 -65 -76 -3 -81 -7 -124 -94 -27 -57 -64 -77 -114 -63 -30 9 -69
3 -87 -11 -20 -17 -4 -31 26 -24 14 4 31 7 36 7 80 -6 98 -3 122 19 14 13 34
42 44 65 28 63 49 76 115 75 74 0 106 19 135 82 31 64 55 80 125 78 55 -1 94
11 94 29 0 13 -11 12 -30 0z"/>
<path d="M2855 2890 c-4 -6 -20 -20 -36 -29 -23 -14 -27 -20 -17 -29 18 -14
87 43 71 59 -8 8 -13 8 -18 -1z"/>
<path d="M2717 2775 c-47 -41 -31 -57 18 -18 19 15 35 31 35 35 0 19 -19 13
-53 -17z"/>
<path d="M830 2710 c0 -5 5 -10 11 -10 5 0 7 5 4 10 -3 6 -8 10 -11 10 -2 0
-4 -4 -4 -10z"/>
<path d="M2612 2689 c-46 -41 -30 -57 19 -18 21 17 37 35 33 40 -8 14 -16 11
-52 -22z"/>
<path d="M2517 2609 c-36 -30 -47 -49 -27 -49 17 0 84 66 73 73 -5 3 -26 -8
-46 -24z"/>
<path d="M3735 2274 c-82 -25 -159 -47 -170 -50 -11 -3 -24 -6 -30 -8 -34 -8
-55 -19 -55 -27 0 -15 14 -12 225 44 134 36 200 58 200 67 0 7 -4 15 -10 16
-5 2 -77 -17 -160 -42z"/>
<path d="M2759 2228 c-38 -23 -57 -85 -39 -128 43 -104 192 -85 207 27 12 92
-85 151 -168 101z m138 -49 c18 -35 16 -63 -7 -92 -44 -56 -131 -40 -148 27
-15 55 8 91 68 109 25 7 74 -18 87 -44z"/>
<path d="M3565 2013 c-57 -7 -72 -13 -72 -28 0 -17 9 -18 85 -9 42 6 52 10 52
25 0 19 -4 20 -65 12z"/>
<path d="M3429 1995 c-3 -2 -30 -7 -60 -11 -62 -7 -63 -8 -56 -27 4 -11 17
-12 62 -6 62 8 86 22 69 39 -6 6 -13 8 -15 5z"/>
<path d="M3195 1963 c-11 -2 -30 -6 -42 -9 -13 -2 -23 -11 -23 -20 0 -13 10
-14 63 -8 59 7 82 18 71 36 -5 8 -34 9 -69 1z"/>
<path d="M3059 1946 c-2 -2 -29 -7 -59 -10 -60 -7 -73 -15 -62 -33 6 -10 22
-10 70 -2 50 9 62 15 62 30 0 19 -3 23 -11 15z"/>
<path d="M2805 1912 c-1 -2 -16 -5 -31 -6 -19 -2 -29 -9 -29 -20 0 -9 2 -17 5
-17 16 -5 120 14 120 22 0 5 0 12 0 17 0 7 -58 11 -65 4z"/>
<path d="M3206 1675 c-53 -36 -69 -38 -106 -10 -33 24 -70 33 -70 17 0 -4 12
-13 28 -20 15 -7 39 -19 54 -28 24 -13 31 -13 60 0 18 9 42 22 54 31 19 14 25
13 69 -11 53 -28 81 -26 123 7 31 24 60 24 92 -1 26 -20 76 -28 65 -10 -4 6
-10 8 -14 5 -4 -2 -23 7 -41 20 -42 31 -65 31 -115 0 -48 -30 -59 -30 -93 -7
-44 31 -69 32 -106 7z"/>
<path d="M3256 1373 c-1 -1 -105 -4 -231 -7 -127 -2 -245 -5 -263 -5 -28 -1
-31 -4 -23 -19 8 -16 33 -17 308 -17 l298 0 0 24 c0 22 -4 25 -43 25 -24 1
-45 0 -46 -1z"/>
<path d="M30 1116 c0 -2 7 -7 16 -10 8 -3 12 -2 9 4 -6 10 -25 14 -25 6z"/>
<path d="M1955 910 c-3 -5 -1 -10 4 -10 6 0 11 5 11 10 0 6 -2 10 -4 10 -3 0
-8 -4 -11 -10z"/>
<path d="M1829 833 c-13 -16 -12 -17 4 -4 16 13 21 21 13 21 -2 0 -10 -8 -17
-17z"/>
</g>
</svg>
